<?xml version="1.0" encoding="UTF-8" standalone="no"?>
<!-- Created with Inkscape (http://www.inkscape.org/) -->

<svg
   width="80.862991mm"
   height="49.290291mm"
   viewBox="0 0 80.862991 49.290291"
   version="1.1"
   id="svg1"
   xml:space="preserve"
   xmlns:inkscape="http://www.inkscape.org/namespaces/inkscape"
   xmlns:sodipodi="http://sodipodi.sourceforge.net/DTD/sodipodi-0.dtd"
   xmlns="http://www.w3.org/2000/svg"
   xmlns:svg="http://www.w3.org/2000/svg"><sodipodi:namedview
     id="namedview1"
     pagecolor="#ffffff"
     bordercolor="#000000"
     borderopacity="0.25"
     inkscape:showpageshadow="2"
     inkscape:pageopacity="0.0"
     inkscape:pagecheckerboard="0"
     inkscape:deskcolor="#d1d1d1"
     inkscape:document-units="mm"
     inkscape:zoom="0.71891835"
     inkscape:cx="396.42889"
     inkscape:cy="561.25984"
     inkscape:window-width="1920"
     inkscape:window-height="1009"
     inkscape:window-x="-8"
     inkscape:window-y="-8"
     inkscape:window-maximized="1"
     inkscape:current-layer="layer1"><inkscape:page
       x="0"
       y="0"
       width="80.862991"
       height="49.290291"
       id="page2"
       margin="0"
       bleed="0" /></sodipodi:namedview><defs
     id="defs1" /><g
     inkscape:label="Layer 1"
     inkscape:groupmode="layer"
     id="layer1"
     transform="translate(-26.992914,-154.56547)"><path
       style="fill:#ffffff"
       d="M 41.111881,203.54216 C 29.571502,201.7267 23.872846,192.39792 28.733452,183.27849 c 2.952181,-5.53886 6.969706,-6.84955 21.638846,-7.05956 l 10.451042,-0.14961 -0.0529,-2.8633 c -0.231069,-12.50671 -14.608281,-17.13317 -27.151907,-8.73724 -2.613247,1.74915 -2.244635,1.83191 -3.857055,-0.86602 -1.578782,-2.64165 -1.624489,-2.47283 1.135203,-4.19287 12.105824,-7.54523 29.076225,-5.74401 33.891865,3.59725 l 0.768081,1.4899 0.701005,-0.96074 c 12.621699,-17.29823 40.581048,-7.90905 41.457528,13.92208 l 0.14075,3.50573 H 87.713064 67.570215 v 0.88372 c 0,14.16318 21.713459,21.74566 32.003527,11.17583 1.484228,-1.52457 1.420748,-1.5382 3.318348,0.71208 1.98907,2.35874 1.9264,2.07941 0.75702,3.37377 -9.002208,9.96437 -29.659725,8.47656 -37.80912,-2.7231 l -1.116908,-1.53496 -0.585634,1.13393 c -3.61343,6.99651 -13.421975,11.06755 -23.025567,9.55678 z m 8.202084,-5.22887 c 7.548297,-1.36728 11.168586,-5.75002 11.56313,-13.99841 l 0.162453,-3.39626 -9.765396,0.11071 c -13.751797,0.15591 -16.554346,1.26307 -17.609782,6.95685 -1.326635,7.15681 6.099129,12.05705 15.649595,10.32711 z m 51.908115,-23.53033 c -1.20434,-18.77682 -31.052208,-18.69244 -33.544428,0.0948 l -0.176133,1.32775 16.901536,-0.0681 16.901535,-0.0681 z"
       id="path1"
       inkscape:export-filename="laeyrd-dark.svg"
       inkscape:export-xdpi="96"
       inkscape:export-ydpi="96"
       sodipodi:nodetypes="ssscssssscsscccssssscsssscssssscccs" /></g></svg>
