<?xml version="1.0" encoding="UTF-8" standalone="no"?>
<!-- Created with Inkscape (http://www.inkscape.org/) -->

<svg
   width="270.40417mm"
   height="86.115379mm"
   viewBox="0 0 270.40417 86.115379"
   version="1.1"
   id="svg1"
   xml:space="preserve"
   xmlns:inkscape="http://www.inkscape.org/namespaces/inkscape"
   xmlns:sodipodi="http://sodipodi.sourceforge.net/DTD/sodipodi-0.dtd"
   xmlns="http://www.w3.org/2000/svg"
   xmlns:svg="http://www.w3.org/2000/svg"><sodipodi:namedview
     id="namedview1"
     pagecolor="#ffffff"
     bordercolor="#000000"
     borderopacity="0.25"
     inkscape:showpageshadow="2"
     inkscape:pageopacity="0.0"
     inkscape:pagecheckerboard="0"
     inkscape:deskcolor="#d1d1d1"
     inkscape:document-units="mm"
     inkscape:zoom="0.71891835"
     inkscape:cx="396.42889"
     inkscape:cy="561.25984"
     inkscape:window-width="1920"
     inkscape:window-height="1009"
     inkscape:window-x="-8"
     inkscape:window-y="-8"
     inkscape:window-maximized="1"
     inkscape:current-layer="layer1"><inkscape:page
       x="0"
       y="-2.0727064e-13"
       width="270.40417"
       height="86.115387"
       id="page2"
       margin="0"
       bleed="0" /></sodipodi:namedview><defs
     id="defs1" /><g
     inkscape:label="Layer 1"
     inkscape:groupmode="layer"
     id="layer1"
     transform="translate(21.329788,-135.45576)"><path
       style="fill:#000000"
       d="m 116.67287,221.03224 c -2.19828,-0.4366 -5.1963,-1.82862 -6.60488,-3.06672 l -1.02619,-0.90199 1.41629,-2.307 c 1.62697,-2.65019 1.47131,-2.57479 2.96368,-1.43564 6.55666,5.00481 13.11839,2.91253 17.25383,-5.50157 2.23025,-4.53776 2.2119,-4.42277 1.10397,-6.91861 -0.50716,-1.14247 -2.7927,-6.24441 -5.07897,-11.33764 -2.28627,-5.09323 -4.84453,-10.80823 -5.68501,-12.7 -0.84048,-1.89177 -2.30299,-5.16599 -3.25001,-7.27605 -2.86499,-6.38345 -6.27453,-14.097 -6.27453,-14.19514 0,-0.0508 1.52903,-0.0924 3.39784,-0.0924 h 3.39785 l 1.87672,4.29948 c 1.0322,2.36472 2.67006,6.08542 3.63968,8.26823 0.96962,2.18281 2.65581,5.99282 3.74707,8.46667 2.00987,4.55628 4.42669,10.0321 7.04228,15.95581 0.79068,1.7907 1.53144,3.25775 1.64613,3.2601 0.22245,0.005 2.6693,-5.45168 14.75381,-32.89969 l 3.22883,-7.33377 3.24115,-0.008 c 1.78263,-0.005 3.24114,0.0445 3.24114,0.10922 0,0.0647 -0.42821,1.04696 -0.95157,2.18281 -0.52337,1.13585 -1.63927,3.61299 -2.4798,5.50476 -1.39684,3.14389 -3.06708,6.877 -7.87212,17.59479 -0.94599,2.11006 -2.40716,5.38428 -3.24706,7.27605 -0.83989,1.89177 -2.38366,5.34458 -3.4306,7.67291 -1.04695,2.32834 -2.7958,6.25383 -3.88634,8.72332 -6.63837,15.03226 -11.59624,18.75918 -22.16319,16.66044 z M 41.111881,203.54216 C 29.571502,201.7267 23.872846,192.39792 28.733452,183.27849 c 2.952181,-5.53886 6.969706,-6.84955 21.638846,-7.05956 l 10.451042,-0.14961 -0.0529,-2.8633 c -0.231069,-12.50671 -14.608281,-17.13317 -27.151907,-8.73724 -2.613247,1.74915 -2.244635,1.83191 -3.857055,-0.86602 -1.578782,-2.64165 -1.624489,-2.47283 1.135203,-4.19287 12.105824,-7.54523 29.076225,-5.74401 33.891865,3.59725 l 0.768081,1.4899 0.701005,-0.96074 c 12.621699,-17.29823 40.581048,-7.90905 41.457528,13.92208 l 0.14075,3.50573 H 87.713064 67.570215 v 0.88372 c 0,14.16318 21.713459,21.74566 32.003527,11.17583 1.484228,-1.52457 1.420748,-1.5382 3.318348,0.71208 1.98907,2.35874 1.9264,2.07941 0.75702,3.37377 -9.002208,9.96437 -29.659725,8.47656 -37.80912,-2.7231 l -1.116908,-1.53496 -0.585634,1.13393 c -3.61343,6.99651 -13.421975,11.06755 -23.025567,9.55678 z m 8.202084,-5.22887 c 7.548297,-1.36728 11.168586,-5.75002 11.56313,-13.99841 l 0.162453,-3.39626 -9.765396,0.11071 c -13.751797,0.15591 -16.554346,1.26307 -17.609782,6.95685 -1.326635,7.15681 6.099129,12.05705 15.649595,10.32711 z m 51.908115,-23.53033 c -1.20434,-18.77682 -31.052208,-18.69244 -33.544428,0.0948 l -0.176133,1.32775 16.901536,-0.0681 16.901535,-0.0681 z m 117.42522,28.15878 c -21.53648,-4.54597 -24.97112,-36.4513 -4.94535,-45.93866 9.61578,-4.55555 21.64995,-2.17073 27.7145,5.4922 1.37222,1.73387 1.30794,2.37576 1.30794,-13.06069 v -13.97882 h 3.175 3.175 v 33.86667 33.86667 h -3.04271 -3.04271 v -4.49792 c 0,-4.70545 -0.11378,-5.1002 -1.03867,-3.60369 -3.94306,6.38 -14.08804,9.79936 -23.303,7.85424 z m 9.16223,-5.4361 c 21.62928,-2.3445 18.87178,-36.91445 -2.94452,-36.91445 -22.31742,0 -24.17842,34.74122 -1.98437,37.04433 1.6942,0.17581 2.24197,0.16137 4.92889,-0.12988 z M -21.329787,171.17452 v -32.01458 h 3.306127 3.306126 l 0.06731,29.03802 0.06731,29.03802 17.8593754,0.13229 17.8593756,0.1323 0.0751,2.84427 0.0751,2.84427 H -0.02187704 -21.329787 Z m 191.358507,8.00365 0.0675,-24.01094 h 3.04271 3.04271 l 0.0729,4.33143 0.0728,4.33142 1.32199,-1.88244 c 3.0925,-4.40356 8.86938,-7.16646 15.00262,-7.17528 l 1.38906,-0.002 v 3.14032 3.14031 l -2.71198,0.12896 c -6.52267,0.31016 -11.14194,3.44419 -13.33994,9.05071 -1.33738,3.41131 -1.41058,4.40705 -1.41058,19.18896 v 13.76949 h -3.30869 -3.30869 z"
       id="path1"
       inkscape:export-filename="laeyrd.png"
       inkscape:export-xdpi="96"
       inkscape:export-ydpi="96" /></g></svg>
